<svg xmlns="http://www.w3.org/2000/svg" width="40" height="40" viewBox="0 0 40 40" fill="none"><path d="M24.2903 3C26.0719 3 27.5161 4.44426 27.5161 6.22581V12.6774H33.3226C35.1042 12.6774 36.5484 14.1217 36.5484 15.9032V24.2903C36.5484 26.0719 35.1042 27.5161 33.3226 27.5161H27.5161V33.3226C27.5161 35.1042 26.0719 36.5484 24.2903 36.5484H15.0968C13.3152 36.5484 11.871 35.1042 11.871 33.3226V27.5161H6.22581C4.44426 27.5161 3 26.0719 3 24.2903V15.9032C3 14.1217 4.44426 12.6774 6.22581 12.6774H11.871V6.22581C11.871 4.44426 13.3152 3 15.0968 3H24.2903Z" fill="#5E7EE9" stroke="#AFBEFF" stroke-width="4"></path><path d="M14.8065 4H24C25.0689 4 25.9355 4.86655 25.9355 5.93548V13.6774H33.0323C34.1013 13.6774 34.9677 14.544 34.9677 15.6129V24C34.9677 25.0689 34.1013 25.9355 33.0323 25.9355H25.9355V33.0323C25.9355 34.1013 25.0689 34.9677 24 34.9677H14.8065C13.7375 34.9677 12.871 34.1013 12.871 33.0323V25.9355H5.93548C4.86655 25.9355 4 25.0689 4 24V15.6129C4 14.544 4.86655 13.6774 5.93548 13.6774H12.871V5.93548C12.871 4.86655 13.7375 4 14.8065 4Z" stroke="#6984DF" stroke-width="2"></path><path d="M25 11C25 16.1613 20 16.1613 20 16.1613C20 16.1613 25 16.1613 25 21C25 16.1613 30.1613 16.1613 30.1613 16.1613C30.1613 16.1613 25 16.1613 25 11Z" fill="url(#paint0_radial_659_1380)"></path><path d="M20.381 19C20.381 21.4974 18 21.4974 18 21.4974C18 21.4974 20.381 21.4974 20.381 23.8387C20.381 21.4974 22.8387 21.4974 22.8387 21.4974C22.8387 21.4974 20.381 21.4974 20.381 19Z" fill="url(#paint1_radial_659_1380)"></path><path d="M25.5873 25C25.5873 26.6649 24 26.6649 24 26.6649C24 26.6649 25.5873 26.6649 25.5873 28.2258C25.5873 26.6649 27.2258 26.6649 27.2258 26.6649C27.2258 26.6649 25.5873 26.6649 25.5873 25Z" fill="url(#paint2_radial_659_1380)"></path><defs>
<radialGradient id="paint0_radial_659_1380" cx="0" cy="0" r="1" gradientUnits="userSpaceOnUse" gradientTransform="translate(25.0806 16) rotate(90) scale(5 5.08065)">
<stop stop-color="white"></stop>
<stop offset="1" stop-color="white"></stop>
</radialGradient>
<radialGradient id="paint1_radial_659_1380" cx="0" cy="0" r="1" gradientUnits="userSpaceOnUse" gradientTransform="translate(20.4194 21.4194) rotate(90) scale(2.41935)">
<stop stop-color="white"></stop>
<stop offset="1" stop-color="white"></stop>
</radialGradient>
<radialGradient id="paint2_radial_659_1380" cx="0" cy="0" r="1" gradientUnits="userSpaceOnUse" gradientTransform="translate(25.6129 26.6129) rotate(90) scale(1.6129)">
<stop stop-color="white"></stop>
<stop offset="1" stop-color="white"></stop>
</radialGradient>
</defs></svg>