<svg xmlns="http://www.w3.org/2000/svg" version="1.1" xmlns:xlink="http://www.w3.org/1999/xlink" width="40" height="40"><svg width="40" height="40" viewBox="0 0 40 40" fill="none" xmlns="http://www.w3.org/2000/svg">
<path d="M24.5161 3.22583C26.2977 3.22583 27.7419 4.67009 27.7419 6.45164V12.9032H33.5484C35.33 12.9032 36.7742 14.3475 36.7742 16.1291V24.5162C36.7742 26.2977 35.33 27.742 33.5484 27.742H27.7419V33.5484C27.7419 35.33 26.2977 36.7742 24.5161 36.7742H15.3226C13.541 36.7742 12.0968 35.33 12.0968 33.5484V27.742H6.45161C4.67006 27.742 3.2258 26.2977 3.2258 24.5162V16.1291C3.2258 14.3475 4.67006 12.9032 6.45161 12.9032H12.0968V6.45164C12.0968 4.67009 13.541 3.22583 15.3226 3.22583H24.5161Z" fill="#FFA6C9" stroke="#E5AFCD" stroke-width="4"></path>
<path d="M15.3226 4.51611H24.5161C25.5851 4.51611 26.4516 5.38266 26.4516 6.4516V14.1935H33.5484C34.6174 14.1935 35.4839 15.0601 35.4839 16.129V24.5161C35.4839 25.585 34.6174 26.4516 33.5484 26.4516H26.4516V33.5484C26.4516 34.6174 25.5851 35.4839 24.5161 35.4839H15.3226C14.2536 35.4839 13.3871 34.6174 13.3871 33.5484V26.4516H6.45161C5.38268 26.4516 4.51613 25.585 4.51613 24.5161V16.129C4.51613 15.0601 5.38268 14.1935 6.45161 14.1935H13.3871V6.4516C13.3871 5.38266 14.2536 4.51611 15.3226 4.51611Z" stroke="#FFC5DB" stroke-width="2"></path>
<path d="M25 10.9678C25 16.1291 20 16.1291 20 16.1291C20 16.1291 25 16.1291 25 20.9678C25 16.1291 30.1613 16.1291 30.1613 16.1291C30.1613 16.1291 25 16.1291 25 10.9678Z" fill="url(#paint0_radial_58_22)"></path>
<path d="M20.4455 19.3549C20.4455 21.8522 18.0645 21.8522 18.0645 21.8522C18.0645 21.8522 20.4455 21.8522 20.4455 24.1936C20.4455 21.8522 22.9032 21.8522 22.9032 21.8522C22.9032 21.8522 20.4455 21.8522 20.4455 19.3549Z" fill="url(#paint1_radial_58_22)"></path>
<path d="M25.7808 24.5161C25.7808 26.181 24.1935 26.181 24.1935 26.181C24.1935 26.181 25.7808 26.181 25.7808 27.7419C25.7808 26.181 27.4193 26.181 27.4193 26.181C27.4193 26.181 25.7808 26.181 25.7808 24.5161Z" fill="url(#paint2_radial_58_22)"></path>
<defs>
<radialGradient id="SvgjsRadialGradient1006" cx="0" cy="0" r="1" gradientUnits="userSpaceOnUse" gradientTransform="translate(25.0806 15.9678) rotate(90) scale(5 5.08065)">
<stop stop-color="white"></stop>
<stop offset="1" stop-color="white"></stop>
</radialGradient>
<radialGradient id="SvgjsRadialGradient1005" cx="0" cy="0" r="1" gradientUnits="userSpaceOnUse" gradientTransform="translate(20.4839 21.7742) rotate(90) scale(2.41935)">
<stop stop-color="white"></stop>
<stop offset="1" stop-color="white"></stop>
</radialGradient>
<radialGradient id="SvgjsRadialGradient1004" cx="0" cy="0" r="1" gradientUnits="userSpaceOnUse" gradientTransform="translate(25.8064 26.129) rotate(90) scale(1.6129)">
<stop stop-color="white"></stop>
<stop offset="1" stop-color="white"></stop>
</radialGradient>
</defs>
</svg><style>@media (prefers-color-scheme: light) { :root { filter: none; } }
@media (prefers-color-scheme: dark) { :root { filter: none; } }
</style></svg>